<?xml version="1.0" encoding="UTF-8"?>
<svg width="79px" height="24px" viewBox="0 0 79 24" version="1.1" xmlns="http://www.w3.org/2000/svg" xmlns:xlink="http://www.w3.org/1999/xlink">
    <!-- Generator: Sketch 55.2 (78181) - https://sketchapp.com -->
    <title>logo-pasha</title>
    <desc>Created with Sketch.</desc>
    <g id="Recipes-Framework" stroke="none" stroke-width="1" fill="none" fill-rule="evenodd">
        <g id="payment-page" transform="translate(-54.000000, -64.000000)" fill="#ED5F74" fill-rule="nonzero">
            <g id="UI-Preview" transform="translate(54.000000, 48.000000)">
                <g id="logo-pasha" transform="translate(0.000000, 16.000000)">
                    <g id="aperture">
                        <polygon id="Path" points="10 8.6 8.1 12 10.1 15.4 14 15.4 15.9 12 13.9 8.6"></polygon>
                        <path d="M12,0 C5.4,0 0,5.4 0,12 C0,18.6 5.4,24 12,24 C18.6,24 24,18.6 24,12 C24,5.4 18.6,0 12,0 Z M19.7,18.4 L17.1,14 L12.6,22 C12.4,22 12.2,22 12,22 C11.4,22 10.9,21.9 10.3,21.8 L12.8,17.4 L3.6,17.5 C3.2,16.9 2.9,16.2 2.6,15.5 L7.7,15.5 L3.1,7.5 C3.4,6.8 3.8,6.2 4.3,5.6 L6.9,10 L11.4,2 C11.6,2 11.8,2 12,2 C12.6,2 13.1,2.1 13.7,2.2 L11.2,6.6 L14.4,6.6 C14.4,6.6 14.4,6.6 14.4,6.6 L20.4,6.6 C20.8,7.2 21.1,7.9 21.4,8.6 L16.3,8.6 L21,16.5 C20.6,17.2 20.2,17.8 19.7,18.4 Z" id="Shape"></path>
                    </g>
                    <path d="M31.3818359,19.1669922 C30.546875,19.1669922 30.0546875,18.6572266 30.0546875,17.7871094 L30.0546875,7.69726562 C30.0546875,6.82714844 30.546875,6.31738281 31.3818359,6.31738281 L35.2138672,6.31738281 C37.8154297,6.31738281 39.6083984,8.04882812 39.6083984,10.6591797 C39.6083984,13.2607422 37.7539062,15.0009766 35.0820312,15.0009766 L32.7089844,15.0009766 L32.7089844,17.7871094 C32.7089844,18.6572266 32.2167969,19.1669922 31.3818359,19.1669922 Z M32.7089844,12.9267578 L34.5019531,12.9267578 C36.0224609,12.9267578 36.9101562,12.1181641 36.9101562,10.6679688 C36.9101562,9.2265625 36.03125,8.41796875 34.5107422,8.41796875 L32.7089844,8.41796875 L32.7089844,12.9267578 Z M43.2360234,19.1494141 C41.4430547,19.1494141 40.08075,17.9892578 40.08075,16.2929688 C40.08075,14.5791016 41.3991094,13.5859375 43.7545781,13.4453125 L46.127625,13.3046875 L46.127625,12.6806641 C46.127625,11.8017578 45.5123906,11.2919922 44.5455938,11.2919922 C43.7633672,11.2919922 43.2887578,11.546875 42.7174688,12.2851562 C42.4362188,12.6015625 42.1110234,12.7597656 41.6979375,12.7597656 C41.0739141,12.7597656 40.6256719,12.3554688 40.6256719,11.7753906 C40.6256719,11.5732422 40.6696172,11.3886719 40.7575078,11.1953125 C41.1969609,10.0703125 42.7086797,9.37597656 44.6598516,9.37597656 C47.0768438,9.37597656 48.6500859,10.6240234 48.6500859,12.5224609 L48.6500859,17.8925781 C48.6500859,18.7451172 48.1315313,19.1845703 47.4020391,19.1845703 C46.7077031,19.1845703 46.2243047,18.7978516 46.1715703,18.0419922 L46.1715703,17.5585938 L46.1188359,17.5585938 C45.5914922,18.5605469 44.4137578,19.1494141 43.2360234,19.1494141 Z M44.0797734,17.2949219 C45.2047734,17.2949219 46.127625,16.5654297 46.127625,15.5458984 L46.127625,14.8603516 L44.1412969,14.9833984 C43.1832891,15.0537109 42.6383672,15.484375 42.6383672,16.1523438 C42.6383672,16.8554688 43.2184453,17.2949219 44.0797734,17.2949219 Z M54.25525,19.2021484 C52.0931406,19.2021484 50.6517344,18.4287109 50.2034922,17.3212891 C50.1419688,17.1542969 50.1068125,16.9873047 50.1068125,16.8466797 C50.1068125,16.2578125 50.5462656,15.8623047 51.1439219,15.8623047 C51.5570078,15.8623047 51.9085703,16.046875 52.2601328,16.4423828 C52.7611094,17.1015625 53.3411875,17.4003906 54.3167734,17.4003906 C55.2484141,17.4003906 55.8548594,17.0136719 55.8548594,16.3896484 C55.8548594,15.8798828 55.5296641,15.6074219 54.6068125,15.4052734 L53.0247813,15.0712891 C51.1790781,14.6757812 50.2474375,13.7353516 50.2474375,12.3378906 C50.2474375,10.5361328 51.8031016,9.37597656 54.2464609,9.37597656 C56.1976328,9.37597656 57.63025,10.2636719 57.9378672,11.3271484 C57.9730234,11.4589844 57.9993906,11.5820312 57.9993906,11.7050781 C57.9993906,12.2236328 57.6741953,12.5839844 57.0150156,12.5839844 C56.6810313,12.5839844 56.3118906,12.4609375 56.083375,12.1884766 C55.6351328,11.6171875 55.1253672,11.1777344 54.2025156,11.1777344 C53.3323984,11.1777344 52.7259531,11.5908203 52.7259531,12.1972656 C52.7259531,12.6894531 53.0950938,13.0146484 54.0355234,13.2167969 L55.5911875,13.5507812 C57.5950938,13.9726562 58.4212656,14.7109375 58.4212656,16.1171875 C58.4212656,17.9892578 56.7425547,19.2021484 54.25525,19.2021484 Z M61.1436172,19.1845703 C60.3965469,19.1845703 59.8604141,18.7275391 59.8604141,17.8486328 L59.8604141,7.44238281 C59.8604141,6.61621094 60.3350234,6.12402344 61.1260391,6.12402344 C61.9170547,6.12402344 62.382875,6.61621094 62.382875,7.44238281 L62.382875,11.2568359 L62.4356094,11.2568359 C62.9365859,10.0703125 63.9649062,9.40234375 65.3975234,9.40234375 C67.4893203,9.40234375 68.6846328,10.7558594 68.6846328,12.9355469 L68.6846328,17.8486328 C68.6846328,18.7275391 68.1572891,19.1845703 67.4014297,19.1845703 C66.6543594,19.1845703 66.1182266,18.7275391 66.1182266,17.8486328 L66.1182266,13.4804688 C66.1182266,12.2675781 65.5205703,11.5292969 64.351625,11.5292969 C63.1387344,11.5292969 62.4268203,12.3818359 62.4268203,13.6210938 L62.4268203,17.8486328 C62.4268203,18.7275391 61.8994766,19.1845703 61.1436172,19.1845703 Z M73.2175313,19.1494141 C71.4245625,19.1494141 70.0622578,17.9892578 70.0622578,16.2929688 C70.0622578,14.5791016 71.3806172,13.5859375 73.7360859,13.4453125 L76.1091328,13.3046875 L76.1091328,12.6806641 C76.1091328,11.8017578 75.4938984,11.2919922 74.5271016,11.2919922 C73.744875,11.2919922 73.2702656,11.546875 72.6989766,12.2851562 C72.4177266,12.6015625 72.0925313,12.7597656 71.6794453,12.7597656 C71.0554219,12.7597656 70.6071797,12.3554688 70.6071797,11.7753906 C70.6071797,11.5732422 70.651125,11.3886719 70.7390156,11.1953125 C71.1784688,10.0703125 72.6901875,9.37597656 74.6413594,9.37597656 C77.0583516,9.37597656 78.6315938,10.6240234 78.6315938,12.5224609 L78.6315938,17.8925781 C78.6315938,18.7451172 78.1130391,19.1845703 77.3835469,19.1845703 C76.6892109,19.1845703 76.2058125,18.7978516 76.1530781,18.0419922 L76.1530781,17.5585938 L76.1003438,17.5585938 C75.573,18.5605469 74.3952656,19.1494141 73.2175313,19.1494141 Z M74.0612813,17.2949219 C75.1862813,17.2949219 76.1091328,16.5654297 76.1091328,15.5458984 L76.1091328,14.8603516 L74.1228047,14.9833984 C73.1647969,15.0537109 72.619875,15.484375 72.619875,16.1523438 C72.619875,16.8554688 73.1999531,17.2949219 74.0612813,17.2949219 Z" id="Pasha"></path>
                </g>
            </g>
        </g>
    </g>
</svg>